<?xml version="1.0" encoding="utf-8"?>
<!-- Generator: Adobe Illustrator 25.2.1, SVG Export Plug-In . SVG Version: 6.00 Build 0)  -->
<svg version="1.1" id="Layer_1" xmlns="http://www.w3.org/2000/svg" xmlns:xlink="http://www.w3.org/1999/xlink" x="0px" y="0px"
	 viewBox="0 0 576 576" style="enable-background:new 0 0 576 576;" xml:space="preserve">
<style type="text/css">
	.st0{fill:#BBD0D3;}
</style>
<g>
	<path class="st0" d="M492.9,325.4H70.3c-17.3,0-31.4-14.1-31.4-31.4v0c0-17.3,14.1-31.4,31.4-31.4h422.6
		c17.3,0,31.4,14.1,31.4,31.4v0C524.3,311.3,510.2,325.4,492.9,325.4z"/>
</g>
<g>
	<path d="M222.1,288.6c-1.6-1.8-4-2.8-6.7-2.8c-5.1,0-8.4,3.7-8.4,9.3c0,5.7,3.3,9.3,8.6,9.3c1.7,0,3.3-0.3,4.8-1
		c0.1-1.3,0.1-2.5,0.1-3.8c0-1.6,0-2.4-0.2-3.6c0.5,0.1,0.8,0.1,1.3,0.1c0.6,0,0.9,0,1.5-0.1c-0.1,1.5-0.2,3.3-0.2,5
		c0,1.8,0,2.3,0.1,3.1c-2.8,0.9-5.2,1.3-7.9,1.3c-3.4,0-5.9-0.8-7.8-2.5c-2.1-1.8-3.2-4.4-3.2-7.7c0-3.4,1.2-6.3,3.5-8.2
		c2-1.7,4.7-2.5,8.1-2.5c3,0,5.3,0.5,7.4,1.7c-0.4,0.6-0.6,1.2-0.7,2.2H222.1z"/>
	<path d="M239,302.2l-0.1,0.3c-0.1,0.5-0.2,0.6-0.2,1.2c-1.8,1.3-3,1.7-5,1.7c-4.3,0-7-2.8-7-7.1c0-2.2,0.6-4.1,1.9-5.4
		c1.2-1.3,2.8-1.9,4.9-1.9c3.8,0,5.9,2.2,5.9,6.2c0,0.2,0,0.6,0,0.9c-0.9-0.1-2.3-0.1-4.8-0.1c-1.8,0-3.3,0-5.3,0.1v0.7
		c0,3.3,2,5.5,4.9,5.5c1.8,0,3.3-0.7,4.6-2.1L239,302.2z M236.7,294.1c-0.6-1.4-1.7-2.2-3.2-2.2c-2.3,0-3.9,2-4.1,5
		c0.9,0,2.2,0.1,4.5,0.1c2,0,2.2,0,3.3-0.1C237,295.5,236.9,294.8,236.7,294.1z"/>
	<path d="M245.4,287.4l0,0.4l-0.1,1.7c-0.1,0.6-0.1,1.1-0.1,2l3.2-0.1c-0.1,0.3-0.1,0.5-0.1,0.6c0,0.1,0,0.3,0.1,0.6h-0.4h-1.2h-1.4
		h-0.3c-0.1,0.9-0.1,0.9-0.1,4.9v2.6c0,1.9,0.1,2.4,0.4,3.1c0.4,0.7,1,1.1,2,1.1c0.4,0,0.8-0.1,1.3-0.2v0.7
		c-1.2,0.4-1.7,0.5-2.5,0.5c-2.1,0-3.4-1.4-3.4-3.6c0-0.3,0-1.1,0.1-1.9c0.1-1.1,0.1-4.5,0.1-6.2c0-0.6,0-0.7,0-1
		c-1.1,0-1.6,0-1.9,0.1c0.1-0.2,0.1-0.4,0.1-0.6s0-0.4-0.1-0.6h2v-0.4c0-0.4-0.1-1.8-0.2-2.8c0.8-0.2,1.7-0.6,2.5-1L245.4,287.4z"/>
	<path d="M261.3,286.2c0,0.8-0.7,1.5-1.5,1.5s-1.5-0.7-1.5-1.5s0.7-1.5,1.5-1.5C260.6,284.8,261.3,285.4,261.3,286.2z M259.8,291.3
		c0.4,0,0.7,0,1.2-0.1c-0.1,1.2-0.2,4.7-0.2,7.2c0,1.9,0.1,5.4,0.2,6.7c-0.5-0.1-0.8-0.1-1.2-0.1c-0.4,0-0.7,0-1.3,0.1
		c0.2-1.7,0.2-3.3,0.2-6.4c0-3.3-0.1-5.7-0.2-7.4C259,291.3,259.4,291.3,259.8,291.3z"/>
	<path d="M267.3,293.7c1.1-1.9,2.7-2.8,4.8-2.8c1.4,0,2.7,0.5,3.6,1.3s1.2,1.9,1.2,3.5c0,0.2,0,1.3-0.1,2.5c0,0.7,0,1.5,0,2.4
		c0,2.2,0,3.4,0.1,4.3c-0.9-0.1-1-0.1-1.3-0.1c-0.3,0-0.5,0-1.2,0.1c0.1-1.9,0.3-5.3,0.3-7.6c0-1.9-0.1-2.8-0.6-3.5
		c-0.6-1-1.6-1.5-2.9-1.5c-1.6,0-2.8,0.7-3.3,2c-0.4,1-0.5,2-0.5,6c0,1.8,0,2.5,0.1,4.6c-0.7-0.1-0.9-0.1-1.3-0.1
		c-0.3,0-0.6,0-1.2,0.1c0.1-1.1,0.3-5.1,0.3-8.2c0-1.9-0.1-3.6-0.3-5.7c0.5,0.1,0.8,0.1,1.3,0.1c0.4,0,0.7,0,1.1-0.1
		c0,0.5,0,0.7-0.1,1.2V293.7z"/>
	<path d="M292.1,286.5c-4.3,0.2-4.6,0.2-5.9,0.4c0.1-0.4,0.1-0.6,0.1-0.9c0-0.3,0-0.6-0.1-1c2.6,0.1,3.5,0.2,7.2,0.2
		c4.1,0,5,0,7.9-0.2c-0.1,0.4-0.2,0.6-0.2,0.9c0,0.3,0,0.5,0.1,0.9c-1-0.2-3.2-0.4-6.1-0.4c-0.1,1.8-0.2,4.8-0.2,7.8
		c0,5.1,0.1,9,0.3,10.6c-0.7-0.1-1.1-0.1-1.5-0.1c-0.5,0-0.8,0-1.4,0.1c0.2-1.4,0.3-6.2,0.3-11.4c0-2-0.1-4.3-0.1-7H292.1z"/>
	<path d="M315.2,298.3c0,4.2-2.8,7-7.1,7c-4.3,0-7.1-2.8-7.1-7.2c0-4.5,2.8-7.2,7.3-7.2C312.6,291,315.2,293.7,315.2,298.3z
		 M303.6,298.2c0,3.9,1.7,6.3,4.5,6.3c2.8,0,4.5-2.4,4.5-6.2c0-4.1-1.6-6.4-4.5-6.4C305.3,291.9,303.6,294.3,303.6,298.2z"/>
	<path d="M318.7,294.5c0-1.7,0-2.3-0.1-3.3c0.5,0.1,0.8,0.1,1.2,0.1s0.7,0,1.3-0.1c-0.1,1.6-0.2,4.9-0.2,7.1c0,2.2,0.1,3.1,0.5,3.8
		c0.6,1.1,1.7,1.7,2.9,1.7c1.6,0,2.9-0.9,3.4-2.5c0.3-0.9,0.3-0.9,0.3-5.5l0-2.1c0-1.5-0.1-1.8-0.1-2.5c0.5,0.1,0.8,0.1,1.2,0.1
		c0.4,0,0.7,0,1.3-0.1c-0.1,1.7-0.2,4.7-0.2,7.3c0,3.6,0.1,5.3,0.2,6.5c-0.6-0.1-0.9-0.1-1.2-0.1c-0.3,0-0.6,0-1.1,0.1
		c0.1-0.7,0.1-0.9,0.1-2.6c-0.9,1.9-2.7,3-4.8,3c-1.3,0-2.5-0.4-3.4-1.3c-0.9-0.9-1.4-2-1.4-3.7c0-0.4,0-1.3,0.1-2.3L318.7,294.5z"
		/>
	<path d="M345.2,294c-0.7-1.3-2.1-2.1-3.7-2.1c-2.9,0-4.9,2.5-4.9,6.1c0,3.7,2.2,6.3,5.3,6.3c1.6,0,2.8-0.6,4.1-1.8l0.2,0.1
		c-0.1,0.4-0.1,0.6-0.1,0.9c0,0.1,0,0.2,0,0.4c-1.3,1.1-2.9,1.6-4.9,1.6c-4.4,0-7.3-2.8-7.3-7.2c0-4.4,3-7.2,7.8-7.2
		c1.7,0,2.9,0.3,4.4,1.2c-0.3,0.6-0.5,1.1-0.6,1.9H345.2z"/>
	<path d="M349,291.3c0-2.8-0.1-6.3-0.2-8.1c0.6,0.1,0.8,0.1,1.4,0.1c0.5,0,0.7,0,1.1-0.1c-0.1,2.5-0.1,4.7-0.1,10.1v0.6
		c0.8-1.8,2.5-2.9,4.7-2.9c1.3,0,2.5,0.4,3.4,1.2c0.9,0.9,1.4,1.9,1.4,3.6c0,0.4,0,1.2-0.1,2c0,1-0.1,2-0.1,2.8
		c0,1.9,0.1,3.3,0.1,4.5c-0.9-0.1-1.1-0.1-1.3-0.1c-0.3,0-0.6,0-1.2,0.1c0.1-1.2,0.2-5.5,0.2-8.2c0-1.5-0.3-2.5-0.8-3.2
		c-0.6-0.7-1.6-1.2-2.7-1.2c-1.4,0-2.6,0.7-3.2,1.9c-0.4,0.9-0.6,1.8-0.6,4.2c0,2.8,0.1,5.1,0.1,6.4c-0.8-0.1-1-0.1-1.3-0.1
		s-0.5,0-1.2,0.1c0.1-2.2,0.2-5,0.2-11V291.3z"/>
</g>
</svg>
