<?xml version="1.0" encoding="utf-8"?>
<!-- Generator: Adobe Illustrator 25.2.1, SVG Export Plug-In . SVG Version: 6.00 Build 0)  -->
<svg version="1.1" id="Layer_1" xmlns="http://www.w3.org/2000/svg" xmlns:xlink="http://www.w3.org/1999/xlink" x="0px" y="0px"
	 viewBox="0 0 576 576" style="enable-background:new 0 0 576 576;" xml:space="preserve">
<style type="text/css">
	.st0{fill:#BBD0D3;}
</style>
<g>
	<path class="st0" d="M492.9,325.4H70.3c-17.3,0-31.4-14.1-31.4-31.4v0c0-17.3,14.1-31.4,31.4-31.4h422.6
		c17.3,0,31.4,14.1,31.4,31.4v0C524.3,311.3,510.2,325.4,492.9,325.4z"/>
</g>
<g>
	<path d="M232.1,284.3c0.5,0,0.9,0,1.4-0.1c-0.2,2.1-0.3,5.6-0.3,9c0,5,0.1,8.7,0.3,10.9c-0.7-0.1-1.1-0.1-1.5-0.1
		c-0.4,0-0.8,0-1.4,0.1c0.2-2.3,0.3-5.9,0.3-11.5c0-3.3-0.1-6.6-0.3-8.5C231.2,284.3,231.5,284.3,232.1,284.3z"/>
	<path d="M240.3,292.9c1.1-1.9,2.7-2.8,4.8-2.8c1.4,0,2.7,0.5,3.6,1.3s1.2,1.9,1.2,3.5c0,0.2,0,1.3-0.1,2.5c0,0.7,0,1.5,0,2.4
		c0,2.2,0,3.4,0.1,4.3c-0.9-0.1-1-0.1-1.3-0.1c-0.3,0-0.5,0-1.2,0.1c0.1-1.9,0.3-5.3,0.3-7.6c0-1.9-0.1-2.8-0.6-3.5
		c-0.6-1-1.6-1.5-2.9-1.5c-1.6,0-2.8,0.7-3.3,2c-0.4,1-0.5,2-0.5,6c0,1.8,0,2.5,0.1,4.6c-0.7-0.1-0.9-0.1-1.3-0.1
		c-0.3,0-0.6,0-1.2,0.1c0.1-1.1,0.3-5.1,0.3-8.2c0-1.9-0.1-3.6-0.3-5.7c0.5,0.1,0.8,0.1,1.3,0.1c0.4,0,0.7,0,1.1-0.1
		c0,0.5,0,0.7-0.1,1.2V292.9z"/>
	<path d="M253.9,301.4c0.9,1.4,2,2.1,3.4,2.1c1.6,0,2.8-1.1,2.8-2.6c0-1.3-0.7-2-2.8-2.6c-1.7-0.5-2.3-0.8-2.9-1.2
		c-0.8-0.6-1.2-1.7-1.2-2.8c0-2.5,2-4.1,5.1-4.1c1.2,0,2.1,0.2,3.5,0.7c-0.5,1.3-0.5,1.4-0.8,2.3h-0.3c-0.3-1.3-1.4-2-2.9-2
		s-2.6,1-2.6,2.4c0,0.8,0.4,1.5,0.9,1.9c0.5,0.4,0.9,0.5,2.5,1c2.5,0.7,3.5,1.7,3.5,3.6c0,2.6-2.3,4.6-5.3,4.6c-1.4,0-2.7-0.4-3.7-1
		c0.2-0.5,0.4-1.3,0.6-2.1H253.9z"/>
	<path d="M268.4,286.6l0,0.4l-0.1,1.7c-0.1,0.6-0.1,1.1-0.1,2l3.2-0.1c-0.1,0.3-0.1,0.5-0.1,0.6c0,0.1,0,0.3,0.1,0.6H271h-1.2h-1.4
		h-0.3c-0.1,0.9-0.1,0.9-0.1,4.9v2.6c0,1.9,0.1,2.4,0.4,3.1c0.4,0.7,1,1.1,2,1.1c0.4,0,0.8-0.1,1.3-0.2v0.7
		c-1.2,0.4-1.7,0.5-2.5,0.5c-2.1,0-3.4-1.4-3.4-3.6c0-0.3,0-1.1,0.1-1.9c0.1-1.1,0.1-4.5,0.1-6.2c0-0.6,0-0.7,0-1
		c-1.1,0-1.6,0-1.9,0.1c0.1-0.2,0.1-0.4,0.1-0.6s0-0.4-0.1-0.6h2v-0.4c0-0.4-0.1-1.8-0.2-2.8c0.8-0.2,1.7-0.6,2.5-1L268.4,286.6z"/>
	<path d="M274.9,293.4c0.1-0.4,0.1-0.6,0.1-0.8s0-0.4-0.1-0.8c1.7-1.1,3.1-1.6,4.7-1.6c3,0,4.7,1.7,4.7,4.5c0,0.5,0,1.2-0.1,2
		c0,1.1-0.1,1.9-0.1,3c0,1.8,0,2.5,0.1,2.8c0.1,0.5,0.5,0.8,1,0.8c0.2,0,0.3,0,0.6-0.1v0.6c-0.8,0.3-1.3,0.4-2,0.4
		c-1.2,0-1.8-0.6-2-1.7c-1.3,1.4-2.8,2.1-4.5,2.1c-2.5,0-4-1.4-4-3.6c0-1.2,0.5-2.3,1.3-2.9c0.8-0.6,1.6-0.9,3.7-1.2
		c2.1-0.4,2.8-0.6,3.6-1.1v-0.1c0-1.6,0-1.7-0.2-2.4c-0.4-1.3-1.6-2-3.1-2c-1.5,0-2.9,0.7-3.6,2.1H274.9z M281.8,297
		c-3.8,0.8-3.9,0.9-4.5,1.2c-0.9,0.5-1.4,1.3-1.4,2.4c0,1.6,1.1,2.7,2.7,2.7c1.3,0,2.6-0.8,3.4-2c0-0.8,0-0.9,0-1.5V299l0.1-1.8V297
		L281.8,297z"/>
	<path d="M297.3,291.2c1.5,0.8,2.1,1.8,2.1,3.6c0,2.8-2.2,4.7-5.3,4.7c-0.2,0-0.6,0-0.9,0c-0.3,0-0.5,0-0.7,0c-1,0-1.7,0.5-1.7,1.2
		c0,0.4,0.3,0.8,0.8,1c0.5,0.2,1.1,0.3,3.5,0.3c2.9,0,3.7,0.1,4.6,0.7c1.1,0.7,1.7,1.8,1.7,3.3c0,3.5-3,5.9-7.2,5.9
		c-1.5,0-3-0.3-4.2-0.9c-1.5-0.7-2.3-2-2.3-3.5c0-1.9,1-2.9,3.5-3.7c-1.4-0.1-2.1-0.9-2.1-2.2c0-1.2,0.6-1.9,2.3-2.5
		c-2-0.6-3.1-2.1-3.1-4.2c0-1.5,0.6-2.8,1.7-3.7c1-0.9,2.2-1.2,4.2-1.2c0.6,0,0.6,0,3.1,0.1c0.2,0,0.5,0,1.1,0c1.1,0,1.8,0,2.5-0.1
		c-0.1,0.2-0.1,0.3-0.1,0.4c0,0.1,0,0.2,0.1,0.6H297.3z M289.4,307.5c0,2.2,2,3.6,4.9,3.6c2.9,0,4.9-1.6,4.9-4.1
		c0-2.1-1.6-3.1-4.8-3.1C291.3,304,289.4,305.3,289.4,307.5z M290.6,295.1c0,2.3,1.2,3.6,3.2,3.6c2.2,0,3.3-1.4,3.3-4
		c0-2.4-1.1-3.8-3.2-3.8C291.7,291,290.6,292.4,290.6,295.1z"/>
	<path d="M310.5,292.8c-0.5-0.3-0.9-0.5-1.4-0.5c-1.2,0-2.3,0.9-2.8,2.2c-0.2,0.7-0.3,1.7-0.3,4.9c0,1.6,0.1,3.8,0.2,4.9
		c-0.6-0.1-0.9-0.1-1.2-0.1c-0.3,0-0.6,0-1.3,0.1c0.1-1.1,0.2-3.8,0.2-7.2c0-2.2,0-2.6-0.2-6.6c0.7,0.1,0.9,0.1,1.2,0.1
		c0.3,0,0.6,0,1.1-0.1v0.3l0,1.2c0,0.7,0,0.7,0,1.5c1-2,2.5-3.3,4-3.3c0.4,0,0.6,0.1,0.9,0.2c-0.1,0.6-0.2,1.2-0.2,1.7
		c0,0.1,0,0.3,0.1,0.6L310.5,292.8z"/>
	<path d="M313.8,293.4c0.1-0.4,0.1-0.6,0.1-0.8s0-0.4-0.1-0.8c1.7-1.1,3.1-1.6,4.7-1.6c3,0,4.7,1.7,4.7,4.5c0,0.5,0,1.2-0.1,2
		c0,1.1-0.1,1.9-0.1,3c0,1.8,0,2.5,0.1,2.8c0.1,0.5,0.5,0.8,1,0.8c0.2,0,0.3,0,0.6-0.1v0.6c-0.8,0.3-1.3,0.4-2,0.4
		c-1.2,0-1.8-0.6-2-1.7c-1.3,1.4-2.8,2.1-4.5,2.1c-2.5,0-4-1.4-4-3.6c0-1.2,0.5-2.3,1.3-2.9c0.8-0.6,1.6-0.9,3.7-1.2
		c2.1-0.4,2.8-0.6,3.6-1.1v-0.1c0-1.6,0-1.7-0.2-2.4c-0.4-1.3-1.6-2-3.1-2c-1.5,0-2.9,0.7-3.6,2.1H313.8z M320.7,297
		c-3.8,0.8-3.9,0.9-4.5,1.2c-0.9,0.5-1.4,1.3-1.4,2.4c0,1.6,1.1,2.7,2.7,2.7c1.3,0,2.6-0.8,3.4-2c0-0.8,0-0.9,0-1.5V299l0.1-1.8V297
		L320.7,297z"/>
	<path d="M329.9,292.9c1.2-2,2.5-2.8,4.6-2.8c2.2,0,3.6,0.9,4.2,2.9c1-1.9,2.6-2.9,4.7-2.9c1.3,0,2.5,0.4,3.3,1.2
		c0.8,0.7,1.1,1.6,1.1,3c0,0.5,0,1.4-0.1,2.4c-0.1,1.1-0.1,2.2-0.1,3.3c0,1.5,0.1,2.8,0.1,4.1c-0.6-0.1-0.9-0.1-1.3-0.1
		c-0.4,0-0.7,0-1.2,0.1c0.1-2.4,0.3-6.7,0.3-8.8c0-1.5-0.2-2.2-0.7-2.8c-0.6-0.7-1.5-1.1-2.4-1.1c-1.2,0-2.3,0.6-2.9,1.5
		c-0.5,0.7-0.7,2.2-0.7,4.6c0,2.7,0.1,5.5,0.1,6.6c-0.6-0.1-0.8-0.1-1.2-0.1c-0.3,0-0.6,0-1.3,0.1c0.1-1.3,0.3-4.6,0.3-6.9
		c0-2.7-0.1-3.4-0.4-4.1c-0.5-1.1-1.4-1.6-2.8-1.6c-1.6,0-2.8,0.8-3.3,2.2c-0.4,0.9-0.4,1.8-0.4,5c0,2.5,0.1,4.1,0.2,5.4
		c-0.7-0.1-1-0.1-1.3-0.1c-0.4,0-0.6,0-1.2,0.1c0.2-2.2,0.2-4.4,0.2-7.2c0-3.1-0.1-5-0.2-6.6c0.5,0.1,0.7,0.1,1.2,0.1
		c0.5,0,0.7,0,1.2-0.1c0,0.4-0.1,1.6-0.1,2.2V292.9z"/>
</g>
</svg>
