<?xml version="1.0" encoding="utf-8"?>
<!-- Generator: Adobe Illustrator 25.2.1, SVG Export Plug-In . SVG Version: 6.00 Build 0)  -->
<svg version="1.1" id="Layer_1" xmlns="http://www.w3.org/2000/svg" xmlns:xlink="http://www.w3.org/1999/xlink" x="0px" y="0px"
	 viewBox="0 0 576 576" style="enable-background:new 0 0 576 576;" xml:space="preserve">
<style type="text/css">
	.st0{fill:#BBD0D3;}
</style>
<g>
	<path class="st0" d="M492.9,325.4H70.3c-17.3,0-31.4-14.1-31.4-31.4v0c0-17.3,14.1-31.4,31.4-31.4h422.6
		c17.3,0,31.4,14.1,31.4,31.4v0C524.3,311.3,510.2,325.4,492.9,325.4z"/>
</g>
<g>
	<path d="M233.2,294.5c0,4.1,0.1,8.3,0.3,9.7c-0.7-0.1-1.1-0.1-1.5-0.1c-0.5,0-0.8,0-1.4,0.1c0.2-2.7,0.3-6.7,0.3-10.7
		c0-3.9-0.1-6.9-0.3-9.2c0.9,0.1,1.5,0.1,2.4,0.1c0.5,0,1.2,0,2-0.1c1,0,2-0.1,2.4-0.1c1.9,0,3.1,0.3,4.1,0.9
		c1.2,0.7,1.9,2.1,1.9,3.6c0,2-1.1,3.6-3,4.6c-0.8,0.4-1.6,0.7-3,0.9l0.3,0.4l1.9,2.4c3.8,4.8,4.6,5.8,5.9,7.2
		c-0.9-0.1-1.3-0.1-1.9-0.1c-0.6,0-0.9,0-1.7,0.1l-0.3-0.4c-3.5-4.7-6.4-8.5-7.3-9.3H233.2z M234.9,293.5c3.7,0,5.8-1.6,5.8-4.5
		c0-2.5-1.6-3.8-4.7-3.8c-0.8,0-1.6,0.1-2.6,0.2c-0.1,2.5-0.2,4-0.2,7.9C233.9,293.4,234.3,293.5,234.9,293.5z"/>
	<path d="M258.8,301.4l-0.1,0.3c-0.1,0.5-0.2,0.6-0.2,1.2c-1.8,1.3-3,1.7-5,1.7c-4.3,0-7-2.8-7-7.1c0-2.2,0.6-4.1,1.9-5.4
		c1.2-1.3,2.8-1.9,4.9-1.9c3.8,0,5.9,2.2,5.9,6.2c0,0.2,0,0.6,0,0.9c-0.9-0.1-2.3-0.1-4.8-0.1c-1.8,0-3.3,0-5.3,0.1v0.7
		c0,3.3,2,5.5,4.9,5.5c1.8,0,3.3-0.7,4.6-2.1L258.8,301.4z M256.5,293.3c-0.6-1.4-1.7-2.2-3.2-2.2c-2.3,0-3.9,2-4.1,5
		c0.9,0,2.2,0.1,4.5,0.1c2,0,2.2,0,3.3-0.1C256.9,294.7,256.8,293.9,256.5,293.3z"/>
	<path d="M262.6,301.4c0.9,1.4,2,2.1,3.4,2.1c1.6,0,2.8-1.1,2.8-2.6c0-1.3-0.7-2-2.8-2.6c-1.7-0.5-2.3-0.8-2.9-1.2
		c-0.8-0.6-1.2-1.7-1.2-2.8c0-2.5,2-4.1,5.1-4.1c1.2,0,2.1,0.2,3.5,0.7c-0.5,1.3-0.5,1.4-0.8,2.3h-0.3c-0.3-1.3-1.4-2-2.9-2
		s-2.6,1-2.6,2.4c0,0.8,0.4,1.5,0.9,1.9c0.5,0.4,0.9,0.5,2.5,1c2.5,0.7,3.5,1.7,3.5,3.6c0,2.6-2.3,4.6-5.3,4.6c-1.4,0-2.7-0.4-3.7-1
		c0.2-0.5,0.4-1.3,0.6-2.1H262.6z"/>
	<path d="M274,293.7c0-1.7,0-2.3-0.1-3.3c0.5,0.1,0.8,0.1,1.2,0.1s0.7,0,1.3-0.1c-0.1,1.6-0.2,4.9-0.2,7.1c0,2.2,0.1,3.1,0.5,3.8
		c0.6,1.1,1.7,1.7,2.9,1.7c1.6,0,2.9-0.9,3.4-2.5c0.3-0.9,0.3-0.9,0.3-5.5l0-2.1c0-1.5-0.1-1.8-0.1-2.5c0.5,0.1,0.8,0.1,1.2,0.1
		c0.4,0,0.7,0,1.3-0.1c-0.1,1.7-0.2,4.7-0.2,7.3c0,3.6,0.1,5.3,0.2,6.5c-0.6-0.1-0.9-0.1-1.2-0.1c-0.3,0-0.6,0-1.1,0.1
		c0.1-0.7,0.1-0.9,0.1-2.6c-0.9,1.9-2.7,3-4.8,3c-1.3,0-2.5-0.4-3.4-1.3c-0.9-0.9-1.4-2-1.4-3.7c0-0.4,0-1.3,0.1-2.3L274,293.7z"/>
	<path d="M292,292.9c1.2-2,2.5-2.8,4.6-2.8c2.2,0,3.6,0.9,4.2,2.9c1-1.9,2.6-2.9,4.7-2.9c1.3,0,2.5,0.4,3.3,1.2
		c0.8,0.7,1.1,1.6,1.1,3c0,0.5,0,1.4-0.1,2.4c-0.1,1.1-0.1,2.2-0.1,3.3c0,1.5,0.1,2.8,0.1,4.1c-0.6-0.1-0.9-0.1-1.3-0.1
		c-0.4,0-0.7,0-1.2,0.1c0.1-2.4,0.3-6.7,0.3-8.8c0-1.5-0.2-2.2-0.7-2.8c-0.6-0.7-1.5-1.1-2.4-1.1c-1.2,0-2.3,0.6-2.9,1.5
		c-0.5,0.7-0.7,2.2-0.7,4.6c0,2.7,0.1,5.5,0.1,6.6c-0.6-0.1-0.8-0.1-1.2-0.1c-0.3,0-0.6,0-1.3,0.1c0.1-1.3,0.3-4.6,0.3-6.9
		c0-2.7-0.1-3.4-0.4-4.1c-0.5-1.1-1.4-1.6-2.8-1.6c-1.6,0-2.8,0.8-3.3,2.2c-0.4,0.9-0.4,1.8-0.4,5c0,2.5,0.1,4.1,0.2,5.4
		c-0.7-0.1-1-0.1-1.3-0.1c-0.4,0-0.6,0-1.2,0.1c0.2-2.2,0.2-4.4,0.2-7.2c0-3.1-0.1-5-0.2-6.6c0.5,0.1,0.7,0.1,1.2,0.1
		c0.5,0,0.7,0,1.2-0.1c0,0.4-0.1,1.6-0.1,2.2V292.9z"/>
	<path d="M325.6,301.4l-0.1,0.3c-0.1,0.5-0.2,0.6-0.2,1.2c-1.8,1.3-3,1.7-5,1.7c-4.3,0-7-2.8-7-7.1c0-2.2,0.6-4.1,1.9-5.4
		c1.2-1.3,2.8-1.9,4.9-1.9c3.8,0,5.9,2.2,5.9,6.2c0,0.2,0,0.6,0,0.9c-0.9-0.1-2.3-0.1-4.8-0.1c-1.8,0-3.3,0-5.3,0.1v0.7
		c0,3.3,2,5.5,4.9,5.5c1.8,0,3.3-0.7,4.6-2.1L325.6,301.4z M323.3,293.3c-0.6-1.4-1.7-2.2-3.2-2.2c-2.3,0-3.9,2-4.1,5
		c0.9,0,2.2,0.1,4.5,0.1c2,0,2.2,0,3.3-0.1C323.7,294.7,323.6,293.9,323.3,293.3z"/>
</g>
</svg>
