<?xml version="1.0" encoding="utf-8"?>
<!-- Generator: Adobe Illustrator 25.2.1, SVG Export Plug-In . SVG Version: 6.00 Build 0)  -->
<svg version="1.1" id="Layer_1" xmlns="http://www.w3.org/2000/svg" xmlns:xlink="http://www.w3.org/1999/xlink" x="0px" y="0px"
	 viewBox="0 0 576 576" style="enable-background:new 0 0 576 576;" xml:space="preserve">
<style type="text/css">
	.st0{fill:#BBD0D3;}
</style>
<g>
	<path class="st0" d="M492.9,325.4H70.3c-17.3,0-31.4-14.1-31.4-31.4v0c0-17.3,14.1-31.4,31.4-31.4h422.6
		c17.3,0,31.4,14.1,31.4,31.4v0C524.3,311.3,510.2,325.4,492.9,325.4z"/>
</g>
<g>
	<path d="M236.6,300.5l1.3-3.7c2.7-7.8,3.7-11,4.1-12.7c0.5,0.1,0.7,0.1,0.9,0.1s0.4,0,0.9-0.1c0.6,2.2,1.7,5.7,3.9,12.2
		c0.5,1.4,0.9,2.7,1.4,4.1l0.2,0.4c2.3-6.8,4.3-13.3,5.2-16.7c0.4,0.1,0.7,0.1,0.9,0.1c0.2,0,0.3,0,1.2-0.1
		c-1.6,3.8-2.1,5.3-3.7,10.1l-1.1,3.1c-1.4,4-2.1,6.2-2.3,6.8c-0.5-0.1-0.7-0.1-0.9-0.1s-0.3,0-0.9,0.1c-0.8-3-2.2-7.4-5.1-15.8
		l-0.1-0.4c-0.4,1-0.6,1.5-1.3,3.6c-0.6,1.6-1.2,3.5-1.4,4c-0.5,1.5-1.1,3-1.6,4.5c-0.6,1.7-0.9,2.7-1.5,4.2
		c-0.5-0.1-0.7-0.1-0.9-0.1c-0.2,0-0.4,0-0.9,0.1l-1-3.4c-0.4-1.4-0.5-1.9-1-3.4c-0.3-1.1-0.7-2.2-1-3.3c-1.4-4.5-1.5-4.7-2.1-6.5
		l-1-2.9l-0.1-0.5c1,0.1,1.2,0.1,1.4,0.1c0.4,0,0.7,0,1.4-0.1c1.1,4.3,3.3,11.9,5,16.8L236.6,300.5z"/>
	<path d="M269.2,301.4l-0.1,0.3c-0.1,0.5-0.2,0.6-0.2,1.2c-1.8,1.3-3,1.7-5,1.7c-4.3,0-7-2.8-7-7.1c0-2.2,0.6-4.1,1.9-5.4
		c1.2-1.3,2.8-1.9,4.9-1.9c3.8,0,5.9,2.2,5.9,6.2c0,0.2,0,0.6,0,0.9c-0.9-0.1-2.3-0.1-4.8-0.1c-1.8,0-3.3,0-5.3,0.1v0.7
		c0,3.3,2,5.5,4.9,5.5c1.8,0,3.3-0.7,4.6-2.1L269.2,301.4z M266.9,293.3c-0.6-1.4-1.7-2.2-3.2-2.2c-2.3,0-3.9,2-4.1,5
		c0.9,0,2.2,0.1,4.5,0.1c2,0,2.2,0,3.3-0.1C267.3,294.7,267.2,293.9,266.9,293.3z"/>
	<path d="M272.7,304.2c0.1-1.2,0.2-5.3,0.2-10.3l0-4.3c0-5.3,0-5.4-0.2-7.3c0.5,0.1,0.8,0.1,1.2,0.1c0.4,0,0.7,0,1.3-0.1
		c-0.1,1.7-0.2,5.6-0.2,10.2v0.5c1.1-2,2.7-3,5-3c3.6,0,5.9,2.7,5.9,6.7c0,4.4-2.8,7.7-6.6,7.7c-1.7,0-2.9-0.6-4.2-2
		c-0.6,0.4-1.5,1.2-2,1.7H272.7z M276,293.1c-0.7,1.1-1,2.7-1,4.6c0,1.8,0.2,3,0.8,4c0.7,1.1,1.9,1.9,3.2,1.9c2.6,0,4.4-2.7,4.4-6.5
		c0-3.5-1.7-5.8-4.2-5.8C277.9,291.2,276.7,292,276,293.1z"/>
	<path d="M289.3,301.4c0.9,1.4,2,2.1,3.4,2.1c1.6,0,2.8-1.1,2.8-2.6c0-1.3-0.7-2-2.8-2.6c-1.7-0.5-2.3-0.8-2.9-1.2
		c-0.8-0.6-1.2-1.7-1.2-2.8c0-2.5,2-4.1,5.1-4.1c1.2,0,2.1,0.2,3.5,0.7c-0.5,1.3-0.5,1.4-0.8,2.3h-0.3c-0.3-1.3-1.4-2-2.9-2
		c-1.5,0-2.6,1-2.6,2.4c0,0.8,0.4,1.5,0.9,1.9c0.5,0.4,0.9,0.5,2.5,1c2.5,0.7,3.5,1.7,3.5,3.6c0,2.6-2.3,4.6-5.3,4.6
		c-1.4,0-2.7-0.4-3.7-1c0.2-0.5,0.4-1.3,0.6-2.1H289.3z"/>
	<path d="M303.3,285.4c0,0.8-0.7,1.5-1.5,1.5c-0.8,0-1.5-0.7-1.5-1.5s0.7-1.5,1.5-1.5C302.6,283.9,303.3,284.6,303.3,285.4z
		 M301.8,290.5c0.4,0,0.7,0,1.2-0.1c-0.1,1.2-0.2,4.7-0.2,7.2c0,1.9,0.1,5.4,0.2,6.7c-0.5-0.1-0.8-0.1-1.2-0.1c-0.4,0-0.7,0-1.3,0.1
		c0.2-1.7,0.2-3.3,0.2-6.4c0-3.3-0.1-5.7-0.2-7.4C301,290.4,301.3,290.5,301.8,290.5z"/>
	<path d="M310,286.6l0,0.4l-0.1,1.7c-0.1,0.6-0.1,1.1-0.1,2l3.2-0.1c-0.1,0.3-0.1,0.5-0.1,0.6c0,0.1,0,0.3,0.1,0.6h-0.4h-1.2H310
		h-0.3c-0.1,0.9-0.1,0.9-0.1,4.9v2.6c0,1.9,0.1,2.4,0.4,3.1c0.4,0.7,1,1.1,2,1.1c0.4,0,0.8-0.1,1.3-0.2v0.7
		c-1.2,0.4-1.7,0.5-2.5,0.5c-2.1,0-3.4-1.4-3.4-3.6c0-0.3,0-1.1,0.1-1.9c0.1-1.1,0.1-4.5,0.1-6.2c0-0.6,0-0.7,0-1
		c-1.1,0-1.6,0-1.9,0.1c0.1-0.2,0.1-0.4,0.1-0.6s0-0.4-0.1-0.6h2v-0.4c0-0.4-0.1-1.8-0.2-2.8c0.8-0.2,1.7-0.6,2.5-1L310,286.6z"/>
	<path d="M326.6,301.4l-0.1,0.3c-0.1,0.5-0.2,0.6-0.2,1.2c-1.8,1.3-3,1.7-5,1.7c-4.3,0-7-2.8-7-7.1c0-2.2,0.6-4.1,1.9-5.4
		c1.2-1.3,2.8-1.9,4.9-1.9c3.8,0,5.9,2.2,5.9,6.2c0,0.2,0,0.6,0,0.9c-0.9-0.1-2.3-0.1-4.8-0.1c-1.8,0-3.3,0-5.3,0.1v0.7
		c0,3.3,2,5.5,4.9,5.5c1.8,0,3.3-0.7,4.6-2.1L326.6,301.4z M324.3,293.3c-0.6-1.4-1.7-2.2-3.2-2.2c-2.3,0-3.9,2-4.1,5
		c0.9,0,2.2,0.1,4.5,0.1c2,0,2.2,0,3.3-0.1C324.7,294.7,324.6,293.9,324.3,293.3z"/>
</g>
</svg>
